<svg width="84" height="83" viewBox="0 0 84 83" fill="none" xmlns="http://www.w3.org/2000/svg">
<path d="M67.3976 0L57.1976 4.02276L51.0036 10.4249V18.4632C50.7366 18.4513 49.252 18.4064 47.3605 18.3632V16.6448C47.3605 15.5473 46.6318 14.8156 45.5389 14.8156C44.446 14.8156 43.7173 15.5473 43.7173 16.6448V18.3275C41.9266 18.3235 40.1106 18.3541 38.2527 18.4275V16.6448C38.2527 15.5473 37.5241 14.8156 36.4311 14.8156C35.3382 14.8156 34.6096 15.5473 34.6096 16.6448V18.6026C31.9227 18.7492 29.5006 18.9368 27.3233 19.1563V16.6448C27.3233 15.5472 26.5947 14.8156 25.5018 14.8156C24.4088 14.8156 23.6802 15.5472 23.6802 16.6448V19.5529C21.143 19.8672 19.1291 20.1686 18.1195 20.3245H18.1124L18.1017 20.3281C17.4517 20.4351 17.0066 20.5357 16.394 20.6425V17.3772C16.394 16.2797 15.6654 15.548 14.5724 15.548C13.4795 15.548 12.7509 16.2797 12.7509 17.3772V21.3177C8.50328 22.1478 5.49668 22.8652 3.64311 23.372V19.5707C3.64311 18.4732 2.91449 17.7416 1.82156 17.7416C0.728622 17.7416 0 18.4732 0 19.5707V41.3386C1.27509 40.424 2.36802 39.5088 3.64311 38.7771V27.1518C5.15493 26.7155 8.21964 25.9312 12.7509 25.0297V32.743C12.7509 33.1088 12.9323 33.2917 12.9323 33.6575C14.0253 33.1088 15.1189 32.7408 16.394 32.375V24.3616C17.2009 24.2181 17.8125 24.0813 18.6923 23.9365C19.6457 23.7892 21.4627 23.5216 23.6802 23.2399V29.8135V30.1814H23.8617C24.9546 29.8156 26.0483 29.4505 27.3233 29.0846V22.8326C29.4796 22.6106 31.9111 22.4183 34.6096 22.2681V27.4377C35.7025 27.2548 36.9776 27.0704 38.2527 26.8875V22.0859C40.089 22.0109 41.9125 21.9817 43.7173 21.9858V26.1551C44.2638 26.1551 44.8117 25.9728 45.176 25.9728H47.3605V22.0215C49.2135 22.0643 50.8277 22.1141 51.0036 22.1216V25.7906C53.3716 25.7906 55.5575 25.7899 58.2898 25.9728V16.6447C58.2898 15.5472 59.0184 14.8156 60.1114 14.8156H74.6838C75.7767 14.8156 76.5054 15.5472 76.5054 16.6447V27.2554C78.8734 27.4383 81.4236 27.8041 83.7916 28.17V10.4248L77.5976 4.20492L67.3976 0ZM67.3976 7.4989C68.4905 7.4989 69.2191 8.23057 69.2191 9.32807C69.2191 10.4256 68.4905 11.1573 67.3976 11.1573C66.3046 11.1573 65.576 10.4256 65.576 9.32807C65.576 8.23057 66.3046 7.4989 67.3976 7.4989ZM49.9113 29.8134C42.2608 33.4718 34.7924 37.6817 28.0527 42.8034C18.2163 49.9372 10.0193 58.1663 0.729334 69.8731L0 70.6054V72.4951C0 78.0179 4.47715 82.4951 10 82.4951H16.2126L16.394 81.9449C17.4869 79.0182 25.3182 63.6553 34.9725 52.1315C43.3516 42.071 51.5507 34.755 58.1083 29.9991C55.0117 29.8162 52.4615 29.8134 49.9113 29.8134ZM64.3023 30.3636C57.9269 34.0219 47.9083 42.2525 37.8898 54.325C28.782 65.483 21.6758 79.0197 20.2186 82.4951H40.0742L40.2557 81.9449C43.7166 71.5186 48.2712 61.6417 53.7359 52.4959C59.3827 43.35 65.5767 35.6667 69.9485 30.728C68.1269 30.545 66.3061 30.5465 64.3023 30.3636ZM40.4371 30.5458C33.6974 31.4604 28.4149 32.9252 24.9539 33.8397C19.3071 35.486 14.9353 36.765 9.47067 39.6917C6.55618 41.3379 3.6424 43.1664 1.09222 45.3614L0 46.276V64.9357C8.74347 54.3265 16.5747 46.8247 25.8647 39.8739C30.4186 36.3984 35.3368 33.4725 40.4371 30.5458ZM74.5023 30.9138C70.3128 35.6696 63.0244 43.8988 56.8311 54.3251C51.5486 63.1051 47.1776 72.6175 43.8988 82.4951H61.7515L61.9329 82.1307C63.7545 73.8994 66.1211 65.8489 68.6713 57.9834C71.5858 49.0205 75.231 40.0575 79.0563 31.4604C77.599 31.2774 76.1418 31.0967 74.5023 30.9138ZM82.6994 32.0106C78.6919 40.7906 75.0481 49.9343 71.9515 59.0802C69.4013 66.7627 67.2161 74.6296 65.3946 82.4951H78.7916C81.553 82.4951 83.7916 80.2565 83.7916 77.4951V32.0106L82.6994 32.0106Z" fill="#D1B06B"/>
</svg>
