<svg width="81" height="70" viewBox="0 0 81 70" fill="none" xmlns="http://www.w3.org/2000/svg">
<path d="M1.90088 6.33626C1.90088 3.88666 3.88666 1.90088 6.33625 1.90088H35.2745C37.7241 1.90088 39.7099 3.88667 39.7099 6.33625V68.0887H6.33626C3.88667 68.0887 1.90088 66.1029 1.90088 63.6533V6.33626Z" stroke="#D1B06B" stroke-width="3.80175"/>
<path d="M40.3931 18.8753C40.3931 16.4257 42.3788 14.4399 44.8284 14.4399H73.7667C76.2163 14.4399 78.2021 16.4257 78.2021 18.8753V63.6461C78.2021 66.0957 76.2163 68.0815 73.7667 68.0815H40.3931V18.8753Z" stroke="#D1B06B" stroke-width="3.80175"/>
<path d="M8.32031 13.8116C8.32031 13.1088 8.88767 12.5391 9.58755 12.5391H16.4155C17.1154 12.5391 17.6827 13.1088 17.6827 13.8116V16.4896C17.6827 17.1924 17.1154 17.7622 16.4155 17.7622H9.58755C8.88767 17.7622 8.32031 17.1924 8.32031 16.4896V13.8116Z" fill="#D1B06B"/>
<path d="M46.8103 40.9717C46.8103 40.2689 47.3776 39.6992 48.0775 39.6992H54.9055C55.6053 39.6992 56.1727 40.2689 56.1727 40.9717V43.6497C56.1727 44.3525 55.6053 44.9223 54.9055 44.9223H48.0775C47.3776 44.9223 46.8103 44.3525 46.8103 43.6497V40.9717Z" fill="#D1B06B"/>
<path d="M8.32031 27.3917C8.32031 26.6889 8.88767 26.1191 9.58755 26.1191H16.4155C17.1154 26.1191 17.6827 26.6889 17.6827 27.3917V30.0697C17.6827 30.7725 17.1154 31.3422 16.4155 31.3422H9.58755C8.88767 31.3422 8.32031 30.7725 8.32031 30.0697V27.3917Z" fill="#D1B06B"/>
<path d="M46.8103 53.5072C46.8103 52.8044 47.3776 52.2346 48.0775 52.2346H54.9055C55.6053 52.2346 56.1727 52.8044 56.1727 53.5072V56.1852C56.1727 56.888 55.6053 57.4577 54.9055 57.4577H48.0775C47.3776 57.4577 46.8103 56.888 46.8103 56.1852V53.5072Z" fill="#D1B06B"/>
<path d="M8.32031 40.9717C8.32031 40.2689 8.88767 39.6992 9.58755 39.6992H16.4155C17.1154 39.6992 17.6827 40.2689 17.6827 40.9717V43.6497C17.6827 44.3525 17.1154 44.9223 16.4155 44.9223H9.58755C8.88767 44.9223 8.32031 44.3525 8.32031 43.6497V40.9717Z" fill="#D1B06B"/>
<path d="M8.32031 54.5518C8.32031 53.849 8.88767 53.2792 9.58755 53.2792H16.4155C17.1154 53.2792 17.6827 53.849 17.6827 54.5518V57.2298C17.6827 57.9326 17.1154 58.5023 16.4155 58.5023H9.58755C8.88767 58.5023 8.32031 57.9326 8.32031 57.2298V54.5518Z" fill="#D1B06B"/>
<path d="M23.9243 13.8116C23.9243 13.1088 24.4917 12.5391 25.1916 12.5391H32.0195C32.7194 12.5391 33.2868 13.1088 33.2868 13.8116V16.4896C33.2868 17.1924 32.7194 17.7622 32.0195 17.7622H25.1916C24.4917 17.7622 23.9243 17.1924 23.9243 16.4896V13.8116Z" fill="#D1B06B"/>
<path d="M62.4143 40.9717C62.4143 40.2689 62.9817 39.6992 63.6815 39.6992H70.5095C71.2094 39.6992 71.7767 40.2689 71.7767 40.9717V43.6497C71.7767 44.3525 71.2094 44.9223 70.5095 44.9223H63.6815C62.9817 44.9223 62.4143 44.3525 62.4143 43.6497V40.9717Z" fill="#D1B06B"/>
<path d="M23.9243 27.3917C23.9243 26.6889 24.4917 26.1191 25.1916 26.1191H32.0195C32.7194 26.1191 33.2868 26.6889 33.2868 27.3917V30.0697C33.2868 30.7725 32.7194 31.3422 32.0195 31.3422H25.1916C24.4917 31.3422 23.9243 30.7725 23.9243 30.0697V27.3917Z" fill="#D1B06B"/>
<path d="M62.4143 53.5072C62.4143 52.8044 62.9817 52.2346 63.6815 52.2346H70.5095C71.2094 52.2346 71.7767 52.8044 71.7767 53.5072V56.1852C71.7767 56.888 71.2094 57.4577 70.5095 57.4577H63.6815C62.9817 57.4577 62.4143 56.888 62.4143 56.1852V53.5072Z" fill="#D1B06B"/>
<path d="M23.9243 40.9717C23.9243 40.2689 24.4917 39.6992 25.1916 39.6992H32.0195C32.7194 39.6992 33.2868 40.2689 33.2868 40.9717V43.6497C33.2868 44.3525 32.7194 44.9223 32.0195 44.9223H25.1916C24.4917 44.9223 23.9243 44.3525 23.9243 43.6497V40.9717Z" fill="#D1B06B"/>
<path d="M23.9243 54.5518C23.9243 53.849 24.4917 53.2792 25.1916 53.2792H32.0195C32.7194 53.2792 33.2868 53.849 33.2868 54.5518V57.2298C33.2868 57.9326 32.7194 58.5023 32.0195 58.5023H25.1916C24.4917 58.5023 23.9243 57.9326 23.9243 57.2298V54.5518Z" fill="#D1B06B"/>
<path d="M46.8103 28.4327C46.8103 27.7299 47.3776 27.1601 48.0775 27.1601H54.9055C55.6053 27.1601 56.1727 27.7299 56.1727 28.4327V31.1107C56.1727 31.8135 55.6053 32.3832 54.9055 32.3832H48.0775C47.3776 32.3832 46.8103 31.8135 46.8103 31.1107V28.4327Z" fill="#D1B06B"/>
<path d="M8.32031 14.8526C8.32031 14.1498 8.88767 13.5801 9.58755 13.5801H16.4155C17.1154 13.5801 17.6827 14.1498 17.6827 14.8526V17.5306C17.6827 18.2334 17.1154 18.8032 16.4155 18.8032H9.58755C8.88767 18.8032 8.32031 18.2334 8.32031 17.5306V14.8526Z" fill="#D1B06B"/>
<path d="M46.8103 40.9681C46.8103 40.2653 47.3776 39.6956 48.0775 39.6956H54.9055C55.6053 39.6956 56.1727 40.2653 56.1727 40.9681V43.6461C56.1727 44.3489 55.6053 44.9187 54.9055 44.9187H48.0775C47.3776 44.9187 46.8103 44.3489 46.8103 43.6461V40.9681Z" fill="#D1B06B"/>
<path d="M8.32031 28.4327C8.32031 27.7299 8.88767 27.1601 9.58755 27.1601H16.4155C17.1154 27.1601 17.6827 27.7299 17.6827 28.4327V31.1107C17.6827 31.8135 17.1154 32.3832 16.4155 32.3832H9.58755C8.88767 32.3832 8.32031 31.8135 8.32031 31.1107V28.4327Z" fill="#D1B06B"/>
<path d="M8.32031 42.0127C8.32031 41.3099 8.88767 40.7402 9.58755 40.7402H16.4155C17.1154 40.7402 17.6827 41.3099 17.6827 42.0127V44.6907C17.6827 45.3935 17.1154 45.9633 16.4155 45.9633H9.58755C8.88767 45.9633 8.32031 45.3935 8.32031 44.6907V42.0127Z" fill="#D1B06B"/>
<path d="M62.4143 28.4327C62.4143 27.7299 62.9817 27.1601 63.6815 27.1601H70.5095C71.2094 27.1601 71.7767 27.7299 71.7767 28.4327V31.1107C71.7767 31.8135 71.2094 32.3832 70.5095 32.3832H63.6815C62.9817 32.3832 62.4143 31.8135 62.4143 31.1107V28.4327Z" fill="#D1B06B"/>
<path d="M23.9243 14.8526C23.9243 14.1498 24.4917 13.5801 25.1916 13.5801H32.0195C32.7194 13.5801 33.2868 14.1498 33.2868 14.8526V17.5306C33.2868 18.2334 32.7194 18.8032 32.0195 18.8032H25.1916C24.4917 18.8032 23.9243 18.2334 23.9243 17.5306V14.8526Z" fill="#D1B06B"/>
<path d="M62.4143 40.9681C62.4143 40.2653 62.9817 39.6956 63.6815 39.6956H70.5095C71.2094 39.6956 71.7767 40.2653 71.7767 40.9681V43.6461C71.7767 44.3489 71.2094 44.9187 70.5095 44.9187H63.6815C62.9817 44.9187 62.4143 44.3489 62.4143 43.6461V40.9681Z" fill="#D1B06B"/>
<path d="M23.9243 28.4327C23.9243 27.7299 24.4917 27.1601 25.1916 27.1601H32.0195C32.7194 27.1601 33.2868 27.7299 33.2868 28.4327V31.1107C33.2868 31.8135 32.7194 32.3832 32.0195 32.3832H25.1916C24.4917 32.3832 23.9243 31.8135 23.9243 31.1107V28.4327Z" fill="#D1B06B"/>
<path d="M23.9243 42.0127C23.9243 41.3099 24.4917 40.7402 25.1916 40.7402H32.0195C32.7194 40.7402 33.2868 41.3099 33.2868 42.0127V44.6907C33.2868 45.3935 32.7194 45.9633 32.0195 45.9633H25.1916C24.4917 45.9633 23.9243 45.3935 23.9243 44.6907V42.0127Z" fill="#D1B06B"/>
</svg>
