<svg width="67" height="67" viewBox="0 0 67 67" fill="none" xmlns="http://www.w3.org/2000/svg">
<path d="M42.7009 63.6422C42.6982 64.3154 42.4416 64.9603 41.9871 65.4363C41.5326 65.9124 40.9169 66.1811 40.2741 66.1839H2.42677C1.78398 66.1811 1.16828 65.9124 0.713754 65.4363C0.259229 64.9603 0.00268953 64.3154 0 63.6422V59.0242C0.00268953 58.3509 0.259229 57.7061 0.713754 57.23C1.16828 56.7539 1.78398 56.4852 2.42677 56.4824H40.2741C40.9173 56.4838 41.5338 56.7521 41.9886 57.2285C42.4434 57.7048 42.6995 58.3505 42.7009 59.0242V63.6422ZM28.5643 49.799C28.192 49.7992 27.8234 49.7223 27.4797 49.5726C27.136 49.4229 26.8239 49.2034 26.5616 48.9267L10.2282 31.8247C9.69703 31.2684 9.39863 30.5139 9.39863 29.7271C9.39863 28.9404 9.69703 28.1858 10.2282 27.6295C10.7593 27.0732 11.4797 26.7607 12.2309 26.7607C12.9821 26.7607 13.7025 27.0732 14.2336 27.6295L30.5619 44.7422C30.9583 45.1568 31.2283 45.6853 31.3377 46.2607C31.4472 46.8361 31.3911 47.4326 31.1767 47.9747C30.9622 48.5167 30.599 48.9799 30.1331 49.3056C29.6671 49.6313 29.1194 49.8049 28.5592 49.8043L28.5643 49.799ZM66.0131 55.1072L43.3088 31.3217L48.8521 25.5212L32.6413 8.54228L17.4676 24.4349L33.6784 41.4085L39.3085 35.517L62.0179 59.3024C62.2809 59.5779 62.5931 59.7964 62.9368 59.9455C63.2804 60.0946 63.6487 60.1713 64.0206 60.1713C64.3926 60.1713 64.7609 60.0946 65.1045 59.9455C65.4481 59.7964 65.7604 59.5779 66.0234 59.3024C66.2864 59.027 66.495 58.7 66.6373 58.34C66.7797 57.9801 66.8529 57.5944 66.8529 57.2048C66.8529 56.8153 66.7797 56.4295 66.6373 56.0696C66.495 55.7097 66.2864 55.3827 66.0234 55.1072H66.0131ZM54.1092 23.0383C53.7382 23.0386 53.3707 22.9621 53.0279 22.8134C52.6852 22.6646 52.3738 22.4465 52.1116 22.1714L35.7731 5.06409C35.5101 4.78863 35.3015 4.46161 35.1591 4.1017C35.0168 3.74179 34.9435 3.35604 34.9435 2.96648C34.9435 2.57691 35.0168 2.19116 35.1591 1.83126C35.3015 1.47135 35.5101 1.14432 35.7731 0.86886C36.0361 0.593398 36.3483 0.374888 36.6919 0.225809C37.0356 0.0767294 37.4039 -2.90247e-09 37.7758 0C38.1477 2.90247e-09 38.516 0.0767294 38.8597 0.225809C39.2033 0.374888 39.5155 0.593398 39.7785 0.86886L56.1068 17.9762C56.5029 18.3905 56.7728 18.9185 56.8824 19.4934C56.992 20.0683 56.9364 20.6644 56.7225 21.2062C56.5087 21.748 56.1463 22.2113 55.6812 22.5374C55.216 22.8635 54.669 23.0378 54.1092 23.0383Z" fill="#D1B06B"/>
</svg>
