<svg width="34" height="34" viewBox="0 0 34 34" fill="none" xmlns="http://www.w3.org/2000/svg">
<g opacity="0.4">
<path d="M31.1667 17.4971H22.95C20.7825 17.4971 19.295 19.1404 19.295 21.1521V25.7137C19.295 27.7254 20.7825 29.3687 22.95 29.3687H27.5117C29.5233 29.3687 31.1667 27.7254 31.1667 25.7137V17.4971Z" stroke="#A06D52" stroke-width="2.4375" stroke-linecap="round" stroke-linejoin="round"/>
<path d="M31.1667 17.4965C31.1667 8.92572 29.5658 7.50913 24.7491 4.64746" stroke="#A06D52" stroke-width="2.4375" stroke-linecap="round" stroke-linejoin="round"/>
</g>
<path d="M14.6896 17.4971H6.47305C4.30555 17.4971 2.81791 19.1404 2.81791 21.1521V25.7137C2.81791 27.7254 4.30555 29.3687 6.47305 29.3687H11.0346C13.0462 29.3687 14.6896 27.7254 14.6896 25.7137V17.4971Z" stroke="#A06D52" stroke-width="2.4375" stroke-linecap="round" stroke-linejoin="round"/>
<path d="M14.6896 17.4965C14.6896 8.92572 13.0889 7.50913 8.27222 4.64746" stroke="#A06D52" stroke-width="2.4375" stroke-linecap="round" stroke-linejoin="round"/>
</svg>
