<svg width="65" height="83" viewBox="0 0 65 83" fill="none" xmlns="http://www.w3.org/2000/svg">
<path d="M50.3889 3.31258C50.3889 1.4831 48.912 0 47.0901 0H17.3808C15.559 0 14.082 1.4831 14.082 3.31258C14.082 3.51332 14.1026 3.70905 14.1368 3.89978C14.1026 4.09066 14.082 4.28623 14.082 4.48697V9.38836C14.082 10.7452 14.8743 11.976 16.1062 12.5332L30.8076 19.1814C31.8245 19.178 32.7049 19.1755 33.7218 19.1722L48.3847 12.4296C49.6062 11.8679 50.3892 10.6428 50.3892 9.29381V4.48713C50.3892 4.28639 50.3686 4.09066 50.3345 3.89994C50.3683 3.70905 50.3889 3.51332 50.3889 3.31258Z" fill="#D1B06B"/>
<path d="M64.1065 17.6532C64.0841 15.2026 61.5081 13.6147 59.2892 14.6349L39.0288 23.9515C37.5997 24.6087 36.7973 26.1562 37.0806 27.7089L43.325 61.9297C43.3258 61.9346 43.3268 61.9398 43.3276 61.9446L43.3295 61.955C43.3324 61.9713 43.3332 61.9874 43.336 62.0036C43.3514 62.0944 43.3641 62.1858 43.3719 62.278C43.3748 62.3128 43.3744 62.3472 43.3762 62.3818C43.3802 62.4554 43.3839 62.5289 43.3828 62.6029C43.3822 62.6495 43.3778 62.6955 43.3751 62.7416C43.3715 62.8027 43.3691 62.8639 43.362 62.925C43.3556 62.9813 43.3453 63.0367 43.3361 63.0925C43.3278 63.1429 43.3212 63.1932 43.3104 63.2436C43.296 63.311 43.2772 63.3766 43.2589 63.4424C43.2481 63.4809 43.2395 63.5195 43.2275 63.5577C43.2017 63.6386 43.171 63.7178 43.1391 63.7964C43.1306 63.8179 43.1243 63.8397 43.1151 63.861L43.1093 63.8748C43.1082 63.877 43.1074 63.8795 43.1063 63.8816L36.2172 79.963C35.6801 81.2169 34.4633 81.9673 33.1853 81.9673C32.8925 81.9673 32.5969 81.9243 32.3052 81.8425C32.0134 81.9243 31.7177 81.9673 31.4251 81.9673C30.1466 81.9673 28.9303 81.2169 28.3933 79.9628L21.5049 63.8825C21.5036 63.8795 21.5024 63.8766 21.5009 63.8735L21.4956 63.861C21.4872 63.8413 21.4816 63.8213 21.4735 63.8014C21.4407 63.7211 21.4095 63.6403 21.3831 63.5572C21.3712 63.5197 21.3628 63.4819 21.3523 63.4444C21.3337 63.3776 21.3147 63.3113 21.3002 63.2435C21.2896 63.1935 21.283 63.1439 21.2746 63.0939C21.2654 63.0379 21.2548 62.9819 21.2484 62.925C21.2416 62.8641 21.2389 62.8032 21.2357 62.7422C21.2331 62.6959 21.2286 62.6496 21.2279 62.6029C21.2268 62.5289 21.2305 62.4554 21.2345 62.3818C21.2363 62.3472 21.2361 62.313 21.2389 62.2782C21.2466 62.1856 21.2595 62.0939 21.2749 62.0031C21.2775 61.9873 21.2783 61.9713 21.2814 61.9551L21.2831 61.9449C21.2839 61.9399 21.2849 61.9347 21.286 61.9297L27.5184 27.7758C27.8031 26.2153 26.9911 24.6609 25.5504 24.0096L4.79889 14.6252C2.5814 13.6227 0.0223727 15.2113 0.000160867 17.6532C-8.84231e-08 17.6702 0 17.6871 0 17.7039V76.6762C0 80.0279 3.0089 82.7546 6.70717 82.7546H57.3994C61.0977 82.7546 64.1066 80.0279 64.1066 76.6764V17.7043C64.1066 17.6873 64.1066 17.6703 64.1065 17.6532Z" fill="#D1B06B"/>
</svg>
