<svg width="71" height="79" viewBox="0 0 71 79" fill="none" xmlns="http://www.w3.org/2000/svg">
<path d="M67.1571 30.7332C65.6207 27.0087 62.4853 20.7603 58.747 20.7603C57.7605 20.7603 56.4698 21.5861 56.0975 21.8396C55.6568 22.1396 55.4264 22.7139 55.5368 23.2361C55.5507 23.3021 56.934 29.8803 57.2249 32.9798C58.0871 42.1679 56.4607 48.8972 52.3912 52.9844C51.5779 53.8008 50.0396 55.1458 50.0249 55.1589C49.7141 55.4307 49.5655 55.8216 49.6273 56.2174C49.689 56.6134 49.952 56.9323 50.3318 57.0961C50.4795 57.1595 53.2097 58.2998 56.6874 58.8279C56.6549 58.9558 56.6358 59.0901 56.6358 59.2299V73.0337H38.4017V55.5345C42.7907 54.8287 46.4234 52.5102 48.6122 48.9652C53.3707 41.2592 49.4275 18.1864 43.0114 6.61194C40.5777 2.22222 38.0513 0 35.5016 0C35.5016 0 35.501 0 35.5004 0C32.9743 0 30.4634 2.23096 28.0382 6.6057C21.6094 18.2024 17.6404 41.2725 22.3892 48.9633C25.1448 53.4259 29.4385 54.9962 32.5999 55.5191V73.0337H14.3657V59.1685C14.3657 59.0185 14.3446 58.8745 14.3067 58.7386C17.4212 58.2001 19.7777 57.2309 19.913 57.1733C20.2933 57.0112 20.5577 56.7232 20.62 56.3266C20.6824 55.9298 20.5334 55.5303 20.2212 55.258C20.205 55.244 18.5938 53.8385 17.7459 52.9873C13.9834 49.2091 12.7174 42.4744 13.8757 32.4001C14.2006 29.5753 15.3586 23.7559 15.3705 23.6972C15.4697 23.1991 15.2689 22.6515 14.8709 22.3387C14.3982 21.9671 12.7661 20.7488 11.6032 20.7488C8.37848 20.7488 5.78094 25.3932 4.1697 29.299C0.6331 37.8739 -1.93336 52.1881 1.92192 56.0595C3.80253 57.9479 6.38619 58.9348 9.60742 59.0738C9.60265 59.125 9.60017 59.177 9.60017 59.2299V73.0337H4.48942C3.55326 73.0337 2.76235 73.7856 2.76235 74.6758V77.1443C2.76235 78.0582 3.56942 78.8597 4.48942 78.8597H5.73494H18.1594H52.8783H65.3031H66.5948C67.4864 78.8597 68.2396 78.0742 68.2396 77.1443V74.6758C68.2396 73.755 67.5173 73.0337 66.5948 73.0337H61.4016V59.1685C61.4016 59.1246 61.3989 59.0815 61.3958 59.0385C64.3207 58.8085 66.6826 57.8285 68.4281 56.0755C72.6512 51.8352 70.925 39.8681 67.1571 30.7332Z" fill="#D1B06B"/>
</svg>
