<svg width="81" height="84" viewBox="0 0 81 84" fill="none" xmlns="http://www.w3.org/2000/svg">
<path fill-rule="evenodd" clip-rule="evenodd" d="M40.4096 4.646e-06H39.9916C36.3795 -0.00011646 33.3677 -0.000197065 30.9767 0.322591C28.4529 0.663344 26.1743 1.41287 24.3433 3.25154C22.5123 5.09022 21.7659 7.37832 21.4266 9.91263C21.1961 11.6338 21.1309 15.7497 21.1125 19.2787C12.9829 19.5454 8.10187 20.4984 4.70978 23.9046C4.79229e-07 28.6342 0 36.2463 0 51.4701C0 66.694 4.79229e-07 74.3063 4.70978 79.0355C9.41956 83.7651 16.9999 83.7651 32.1604 83.7651H48.2407C63.4012 83.7651 70.9818 83.7651 75.6913 79.0355C80.4012 74.3063 80.4012 66.694 80.4012 51.4701C80.4012 36.2463 80.4012 28.6342 75.6913 23.9046C72.2992 20.4984 67.4184 19.5454 59.2887 19.2787C59.2702 15.7497 59.205 11.6338 58.9747 9.91263C58.6354 7.37832 57.8889 5.09022 56.0577 3.25154C54.227 1.41287 51.9484 0.663344 49.4246 0.322591C47.0335 -0.000197065 44.0217 -0.00011646 40.4096 4.646e-06ZM53.2574 19.1827C53.2393 15.7649 53.1814 12.0867 52.9985 10.7195C52.7488 8.85662 52.3179 8.05938 51.7941 7.5333C51.2702 7.00721 50.4763 6.57438 48.621 6.32393C46.6793 6.06177 44.0759 6.05532 40.2006 6.05532C36.3253 6.05532 33.7219 6.06177 31.7801 6.32393C29.925 6.57438 29.1311 7.00721 28.6072 7.5333C28.0833 8.05938 27.6523 8.85662 27.4029 10.7195C27.2198 12.0867 27.162 15.7649 27.1438 19.1827C28.7173 19.1752 30.387 19.1752 32.1605 19.1752H48.2407C50.0144 19.1752 51.6839 19.1752 53.2574 19.1827ZM40.2006 32.295C41.8657 32.295 43.2157 33.6505 43.2157 35.3227V35.3638C47.5927 36.4711 51.2558 39.9368 51.2558 44.7419C51.2558 46.414 49.9058 47.7695 48.2407 47.7695C46.5756 47.7695 45.2257 46.414 45.2257 44.7419C45.2257 43.1917 43.5139 41.0417 40.2006 41.0417C36.8873 41.0417 35.1755 43.1917 35.1755 44.7419C35.1755 46.2924 36.8873 48.4425 40.2006 48.4425C45.768 48.4425 51.2558 52.3171 51.2558 58.1984C51.2558 63.0035 47.5927 66.4692 43.2157 67.5765V67.6176C43.2157 69.2897 41.8657 70.6453 40.2006 70.6453C38.5355 70.6453 37.1856 69.2897 37.1856 67.6176V67.5765C32.8085 66.4692 29.1454 63.0035 29.1454 58.1984C29.1454 56.5263 30.4953 55.1707 32.1605 55.1707C33.8256 55.1707 35.1755 56.5263 35.1755 58.1984C35.1755 59.7486 36.8873 61.8986 40.2006 61.8986C43.5139 61.8986 45.2257 59.7486 45.2257 58.1984C45.2257 56.6478 43.5139 54.4978 40.2006 54.4978C34.6332 54.4978 29.1454 50.6236 29.1454 44.7419C29.1454 39.9368 32.8085 36.4711 37.1856 35.3638V35.3227C37.1856 33.6505 38.5355 32.295 40.2006 32.295Z" fill="#D1B06B"/>
</svg>
