<svg width="57" height="53" viewBox="0 0 57 53" fill="none" xmlns="http://www.w3.org/2000/svg">
<path d="M36.2491 50.7643C36.2469 51.3007 36.0328 51.8145 35.6535 52.1939C35.2742 52.5732 34.7603 52.7873 34.2239 52.7895H2.63853C2.10209 52.7873 1.58827 52.5732 1.20894 52.1939C0.82962 51.8145 0.615526 51.3007 0.613281 50.7643V47.0847C0.615526 46.5483 0.82962 46.0344 1.20894 45.6551C1.58827 45.2758 2.10209 45.0617 2.63853 45.0595H34.2239C34.7607 45.0606 35.2752 45.2743 35.6547 45.6539C36.0343 46.0335 36.248 46.5479 36.2491 47.0847V50.7643ZM24.4515 39.7341C24.1409 39.7343 23.8332 39.673 23.5464 39.5537C23.2595 39.4344 22.9991 39.2596 22.7802 39.0391L9.14918 25.4124C8.7059 24.9691 8.45688 24.3679 8.45688 23.741C8.45688 23.1142 8.7059 22.5129 9.14918 22.0697C9.59245 21.6264 10.1937 21.3774 10.8205 21.3774C11.4474 21.3774 12.0486 21.6264 12.4919 22.0697L26.1186 35.7049C26.4494 36.0353 26.6748 36.4564 26.7661 36.9149C26.8574 37.3734 26.8106 37.8486 26.6317 38.2805C26.4527 38.7124 26.1496 39.0815 25.7607 39.341C25.3719 39.6005 24.9148 39.7388 24.4473 39.7384L24.4515 39.7341ZM55.7043 43.9637L36.7565 25.0116L41.3826 20.3898L27.854 6.86111L15.1908 19.5243L28.7195 33.0487L33.4181 28.3543L52.3701 47.3064C52.5896 47.5259 52.8502 47.7 53.137 47.8188C53.4237 47.9376 53.7311 47.9987 54.0415 47.9987C54.3519 47.9987 54.6593 47.9376 54.946 47.8188C55.2328 47.7 55.4934 47.5259 55.7129 47.3064C55.9324 47.0869 56.1065 46.8264 56.2252 46.5396C56.344 46.2528 56.4052 45.9455 56.4052 45.6351C56.4052 45.3247 56.344 45.0173 56.2252 44.7305C56.1065 44.4437 55.9324 44.1832 55.7129 43.9637H55.7043ZM45.77 18.4114C45.4603 18.4116 45.1537 18.3507 44.8676 18.2322C44.5815 18.1137 44.3216 17.9399 44.1029 17.7207L30.4676 4.08972C30.2481 3.87023 30.074 3.60966 29.9552 3.32289C29.8364 3.03612 29.7753 2.72875 29.7753 2.41835C29.7753 2.10795 29.8364 1.80059 29.9552 1.51382C30.074 1.22704 30.2481 0.966476 30.4676 0.746989C30.6871 0.527502 30.9477 0.353396 31.2344 0.23461C31.5212 0.115825 31.8286 0.0546875 32.139 0.0546875C32.4494 0.0546875 32.7567 0.115825 33.0435 0.23461C33.3303 0.353396 33.5908 0.527502 33.8103 0.746989L47.4371 14.378C47.7676 14.7081 47.9928 15.1288 48.0843 15.5869C48.1758 16.045 48.1293 16.5199 47.9509 16.9516C47.7725 17.3833 47.47 17.7524 47.0818 18.0123C46.6936 18.2721 46.2371 18.411 45.77 18.4114Z" fill="white"/>
</svg>
