<svg width="80" height="78" viewBox="0 0 80 78" fill="none" xmlns="http://www.w3.org/2000/svg">
<path fill-rule="evenodd" clip-rule="evenodd" d="M75.1852 24.2345C75.1852 18.9981 75.1852 16.3799 73.9336 14.4991C73.3919 13.6849 72.6957 12.9859 71.8849 12.4418C70.2467 11.3426 68.0469 11.2049 64.0318 11.1876C64.047 12.274 64.0467 13.4093 64.0467 14.5799V14.9135V19.574H67.7595C69.2974 19.574 70.5441 20.8259 70.5441 22.3703C70.5441 23.9146 69.2974 25.1666 67.7595 25.1666H64.0467V30.7591H67.7595C69.2974 30.7591 70.5441 32.0111 70.5441 33.5554C70.5441 35.0997 69.2974 36.3517 67.7595 36.3517H64.0467V41.9443H67.7595C69.2974 41.9443 70.5441 43.1962 70.5441 44.7405C70.5441 46.2848 69.2974 47.5368 67.7595 47.5368H64.0467V71.7713H58.4774V14.9135C58.4774 7.88321 58.4774 4.36806 56.3024 2.18405C54.1274 -2.22229e-07 50.6269 0 43.626 0H36.2003C29.1993 0 25.6988 -2.22229e-07 23.5238 2.18405C21.3489 4.36806 21.3489 7.88321 21.3489 14.9135V71.7713H15.7796V47.5368H12.0668C10.5289 47.5368 9.28212 46.2848 9.28212 44.7405C9.28212 43.1962 10.5289 41.9443 12.0668 41.9443H15.7796V36.3517H12.0668C10.5289 36.3517 9.28212 35.0997 9.28212 33.5554C9.28212 32.0111 10.5289 30.7591 12.0668 30.7591H15.7796V25.1666H12.0668C10.5289 25.1666 9.28212 23.9146 9.28212 22.3703C9.28212 20.8259 10.5289 19.574 12.0668 19.574H15.7796V14.9135L15.7796 14.5798C15.7795 13.4093 15.7793 12.274 15.7946 11.1876C11.7795 11.2049 9.57945 11.3426 7.94127 12.4418C7.13045 12.9859 6.43429 13.6849 5.89252 14.4991C4.64106 16.3799 4.64106 18.9981 4.64106 24.2345V71.7713H2.78464C1.24674 71.7713 0 73.0233 0 74.5676C0 76.1119 1.24674 77.3639 2.78464 77.3639H77.0416C78.5795 77.3639 79.8263 76.1119 79.8263 74.5676C79.8263 73.0233 78.5795 71.7713 77.0416 71.7713H75.1852V24.2345ZM29.7028 36.3517C29.7028 34.8074 30.9495 33.5554 32.4874 33.5554H47.3388C48.8767 33.5554 50.1235 34.8074 50.1235 36.3517C50.1235 37.896 48.8767 39.148 47.3388 39.148H32.4874C30.9495 39.148 29.7028 37.896 29.7028 36.3517ZM29.7028 47.5368C29.7028 45.9925 30.9495 44.7405 32.4874 44.7405H47.3388C48.8767 44.7405 50.1235 45.9925 50.1235 47.5368C50.1235 49.0811 48.8767 50.3331 47.3388 50.3331H32.4874C30.9495 50.3331 29.7028 49.0811 29.7028 47.5368ZM39.9131 60.5862C41.451 60.5862 42.6978 61.8381 42.6978 63.3824V71.7713H37.1285V63.3824C37.1285 61.8381 38.3753 60.5862 39.9131 60.5862ZM29.7028 15.8456C29.7028 14.3013 30.9495 13.0493 32.4874 13.0493H47.3388C48.8767 13.0493 50.1235 14.3013 50.1235 15.8456C50.1235 17.3899 48.8767 18.6419 47.3388 18.6419H32.4874C30.9495 18.6419 29.7028 17.3899 29.7028 15.8456ZM29.7028 27.0307C29.7028 25.4864 30.9495 24.2345 32.4874 24.2345H47.3388C48.8767 24.2345 50.1235 25.4864 50.1235 27.0307C50.1235 28.5751 48.8767 29.827 47.3388 29.827H32.4874C30.9495 29.827 29.7028 28.5751 29.7028 27.0307Z" fill="#D1B06B"/>
</svg>
