<svg width="28" height="27" viewBox="0 0 28 27" fill="none" xmlns="http://www.w3.org/2000/svg">
<path fill-rule="evenodd" clip-rule="evenodd" d="M0.5 13.5C0.5 8.10729 0.5 5.41094 1.78504 3.46883C2.35887 2.60158 3.10158 1.85887 3.96883 1.28504C5.91094 0 8.60729 0 14 0C19.3927 0 22.0891 0 24.0312 1.28504C24.8984 1.85887 25.6411 2.60158 26.215 3.46883C27.5 5.41094 27.5 8.10729 27.5 13.5C27.5 18.8927 27.5 21.5891 26.215 23.5312C25.6411 24.3984 24.8984 25.1411 24.0312 25.715C22.0891 27 19.3927 27 14 27C8.60729 27 5.91094 27 3.96883 25.715C3.10158 25.1411 2.35887 24.3984 1.78504 23.5312C0.5 21.5891 0.5 18.8927 0.5 13.5ZM20.9889 13.5003C20.9889 17.3603 17.8597 20.4895 13.9997 20.4895C10.1398 20.4895 7.01062 17.3603 7.01062 13.5003C7.01062 9.64036 10.1398 6.51123 13.9997 6.51123C17.8597 6.51123 20.9889 9.64036 20.9889 13.5003ZM13.9997 18.1248C16.5538 18.1248 18.6242 16.0544 18.6242 13.5003C18.6242 10.9463 16.5538 8.87583 13.9997 8.87583C11.4457 8.87583 9.37523 10.9463 9.37523 13.5003C9.37523 16.0544 11.4457 18.1248 13.9997 18.1248ZM21.2649 7.80232C22.1719 7.80232 22.9071 7.06707 22.9071 6.16009C22.9071 5.25311 22.1719 4.51785 21.2649 4.51785C20.3579 4.51785 19.6227 5.25311 19.6227 6.16009C19.6227 7.06707 20.3579 7.80232 21.2649 7.80232Z" fill="#1E253F"/>
</svg>
