<svg width="82" height="90" viewBox="0 0 82 90" fill="none" xmlns="http://www.w3.org/2000/svg">
<path d="M61.5184 45.0815C61.5184 47.7791 60.9872 50.4504 59.9547 52.9426C58.9222 55.4348 57.4091 57.6994 55.5015 59.607C53.594 61.5146 51.3294 63.0277 48.8372 64.0602C46.345 65.0926 43.6736 65.6239 40.976 65.6239C38.2784 65.6239 35.607 65.0926 33.1148 64.0602C30.6224 63.0277 28.3579 61.5146 26.4503 59.607C24.5428 57.6994 23.0297 55.4348 21.9973 52.9426C20.9649 50.4504 20.4336 47.7791 20.4336 45.0815C20.4336 42.3838 20.9649 39.7125 21.9973 37.2203C23.0297 34.7279 24.5428 32.4633 26.4503 30.5558C28.3579 28.6482 30.6225 27.1351 33.1148 26.1027C35.607 25.0704 38.2784 24.5391 40.976 24.5391C43.6736 24.5391 46.345 25.0704 48.8372 26.1027C51.3294 27.1351 53.594 28.6482 55.5015 30.5558C57.4091 32.4633 58.9222 34.7279 59.9547 37.2203C60.9872 39.7125 61.5184 42.3838 61.5184 45.0815Z" stroke="#D1B06B" stroke-width="6.16272"/>
<path d="M48.5664 52.9426C48.9793 50.4504 49.1917 47.7791 49.1917 45.0815C49.1917 42.3838 48.9793 39.7125 48.5664 37.2203C48.1531 34.7279 47.5479 32.4633 46.785 30.5558C46.022 28.6482 45.1161 27.1351 44.1194 26.1027C43.1223 25.0704 42.0537 24.5391 40.9748 24.5391C39.8959 24.5391 38.8273 25.0704 37.8301 26.1027C36.8334 27.1351 35.9275 28.6482 35.1646 30.5558C34.4016 32.4633 33.7964 34.7279 33.3831 37.2203C32.9702 39.7125 32.7578 42.3838 32.7578 45.0815C32.7578 47.7791 32.9702 50.4504 33.3831 52.9426C33.796 55.4348 34.4016 57.6994 35.1646 59.607C35.9275 61.5146 36.8334 63.0277 37.8301 64.0602C38.8273 65.0926 39.8959 65.6239 40.9748 65.6239C42.0537 65.6239 43.1223 65.0926 44.1194 64.0602C45.1161 63.0277 46.022 61.5146 46.785 59.607C47.5479 57.6994 48.1531 55.4348 48.5664 52.9426Z" stroke="#D1B06B" stroke-width="6.16272"/>
<path d="M20.4336 45.0859H61.5184" stroke="#D1B06B" stroke-width="6.16272" stroke-linecap="round"/>
<path d="M4 38.5798C4 25.4424 4 18.8738 5.55103 16.664C7.10203 14.4542 13.2783 12.34 25.6308 8.11173L27.9842 7.30618C34.4233 5.10206 37.6427 4 40.9763 4C44.3099 4 47.5293 5.10206 53.9686 7.30618L56.3219 8.11173C68.6745 12.34 74.8507 14.4542 76.4017 16.664C77.9526 18.8738 77.9526 25.4424 77.9526 38.5798C77.9526 40.5638 77.9526 42.7158 77.9526 45.0495C77.9526 55.3408 74.5147 63.2788 69.7357 69.3417M4.79228 53.3018C8.31497 70.9616 22.8021 80.0599 32.3426 84.2275C35.3066 85.5221 36.7885 86.1696 40.9763 86.1696C45.1641 86.1696 46.646 85.5221 49.6099 84.2275C51.9854 83.1897 54.6674 81.8467 57.4102 80.1416" stroke="#D1B06B" stroke-width="6.16272" stroke-linecap="round"/>
</svg>
