<svg width="57" height="84" viewBox="0 0 57 84" fill="none" xmlns="http://www.w3.org/2000/svg">
<path d="M28.5511 80.6605C42.6213 80.6605 54.1023 67.5747 54.1023 51.5378V32.1227C54.1023 16.0858 42.6213 3 28.5511 3C14.481 3 3 16.0858 3 32.1227V51.5378C3 67.5747 14.481 80.6605 28.5511 80.6605Z" stroke="#282F48" stroke-width="5.11023" stroke-linecap="round" stroke-linejoin="round"/>
<path d="M28.5511 80.6605C42.6213 80.6605 54.1023 67.5747 54.1023 51.5378V32.1227C54.1023 16.0858 42.6213 3 28.5511 3C14.481 3 3 16.0858 3 32.1227V51.5378C3 67.5747 14.481 80.6605 28.5511 80.6605Z" stroke="#282F48" stroke-width="5.11023" stroke-linecap="round" stroke-linejoin="round"/>
<g opacity="0.4">
<path d="M28.5516 37.9386C25.724 37.9386 23.4414 35.3369 23.4414 32.114V24.348C23.4414 21.1251 25.724 18.5234 28.5516 18.5234C31.3452 18.5234 33.6619 21.1251 33.6619 24.348V32.114C33.6619 35.3369 31.3452 37.9386 28.5516 37.9386Z" stroke="#282F48" stroke-width="5.11023" stroke-linecap="round" stroke-linejoin="round"/>
<path d="M28.5508 18.5321V3" stroke="#282F48" stroke-width="5.11023" stroke-linecap="round" stroke-linejoin="round"/>
</g>
</svg>
