<svg width="34" height="34" viewBox="0 0 34 34" fill="none" xmlns="http://www.w3.org/2000/svg">
<g opacity="0.4">
<path d="M2.83333 17.4971H11.05C13.2175 17.4971 14.705 19.1404 14.705 21.1521V25.7137C14.705 27.7254 13.2175 29.3687 11.05 29.3687H6.48836C4.47669 29.3687 2.83333 27.7254 2.83333 25.7137V17.4971Z" stroke="#A06D52" stroke-width="2.125" stroke-linecap="round" stroke-linejoin="round"/>
<path d="M2.83333 17.4965C2.83333 8.92572 4.4342 7.50913 9.25087 4.64746" stroke="#A06D52" stroke-width="2.125" stroke-linecap="round" stroke-linejoin="round"/>
</g>
<path d="M19.3105 17.4971H27.527C29.6945 17.4971 31.1821 19.1404 31.1821 21.1521V25.7137C31.1821 27.7254 29.6945 29.3687 27.527 29.3687H22.9655C20.9538 29.3687 19.3105 27.7254 19.3105 25.7137V17.4971Z" stroke="#A06D52" stroke-width="2.125" stroke-linecap="round" stroke-linejoin="round"/>
<path d="M19.3105 17.4965C19.3105 8.92572 20.9111 7.50913 25.7278 4.64746" stroke="#A06D52" stroke-width="2.125" stroke-linecap="round" stroke-linejoin="round"/>
</svg>
