<svg width="20" height="20" viewBox="0 0 20 20" fill="none" xmlns="http://www.w3.org/2000/svg">
<path opacity="0.5" d="M12.5562 13.2977L12.1007 13.7772C12.1007 13.7772 11.0181 14.917 8.0631 11.8059C5.10812 8.69484 6.1907 7.55507 6.1907 7.55507L6.47752 7.25311C7.1841 6.50924 7.2507 5.31497 6.63424 4.4431L5.37326 2.65961C4.61028 1.5805 3.13596 1.43795 2.26145 2.35864L0.691848 4.01114C0.258228 4.46766 -0.0323518 5.05945 0.0028882 5.71594C0.0930382 7.39546 0.810708 11.009 4.81536 15.2252C9.0621 19.6962 13.0468 19.8739 14.6763 19.7131C15.1917 19.6622 15.6399 19.3843 16.0011 19.004L17.4217 17.5084C18.3806 16.4989 18.1102 14.7682 16.8833 14.062L14.9728 12.9623C14.1672 12.4986 13.1858 12.6348 12.5562 13.2977Z" fill="white"/>
<path d="M10.2595 0.629833C10.3257 0.220943 10.7122 -0.0564274 11.1211 0.00976261C11.1464 0.0146126 11.2279 0.0298326 11.2705 0.0393326C11.3559 0.0583426 11.4749 0.0875926 11.6233 0.130823C11.9201 0.217263 12.3347 0.359673 12.8323 0.587803C13.8286 1.04456 15.1544 1.84356 16.5302 3.21936C17.906 4.59516 18.705 5.92097 19.1617 6.91725C19.3899 7.41487 19.5323 7.82947 19.6187 8.12625C19.6619 8.27466 19.6912 8.39369 19.7102 8.47901C19.7197 8.52168 19.7267 8.55594 19.7315 8.58125L19.7373 8.61245C19.8034 9.0213 19.5286 9.4239 19.1197 9.4901C18.712 9.5561 18.3279 9.28 18.2601 8.8731C18.258 8.8621 18.2522 8.8328 18.2461 8.8051C18.2337 8.7497 18.2124 8.66188 18.1786 8.54572C18.1109 8.31339 17.9934 7.96806 17.7982 7.54238C17.4084 6.69207 16.7074 5.51789 15.4695 4.28002C14.2317 3.04216 13.0575 2.34117 12.2072 1.95134C11.7815 1.75618 11.4362 1.63865 11.2038 1.57097C11.0877 1.53714 10.9417 1.50363 10.8863 1.4913C10.4793 1.42347 10.1935 1.03755 10.2595 0.629833Z" fill="#1E253F"/>
<path fill-rule="evenodd" clip-rule="evenodd" d="M10.4857 4.07931C10.5995 3.68103 11.0146 3.45041 11.4129 3.5642L11.2069 4.28535C11.4129 3.5642 11.4129 3.5642 11.4129 3.5642L11.4144 3.56462L11.4159 3.56507L11.4192 3.56603L11.427 3.56835L11.4468 3.57452C11.4618 3.57934 11.4807 3.58562 11.5031 3.59359C11.548 3.60953 11.6074 3.63219 11.6802 3.66339C11.8259 3.72583 12.0249 3.82224 12.2695 3.96695C12.7589 4.25663 13.4271 4.73781 14.2121 5.52278C14.9971 6.30776 15.4782 6.97594 15.7679 7.46541C15.9126 7.70992 16.009 7.90898 16.0715 8.05467C16.1027 8.12747 16.1254 8.18684 16.1413 8.23175C16.1493 8.2542 16.1555 8.27302 16.1604 8.2881L16.1665 8.3079L16.1688 8.31564L16.1698 8.31897L16.1702 8.32052C16.1702 8.32052 16.1707 8.32195 15.4495 8.52799L16.1707 8.32196C16.2845 8.72023 16.0538 9.13531 15.6556 9.24911C15.2607 9.36191 14.8492 9.13621 14.7313 8.74414L14.7276 8.73336C14.7223 8.71833 14.7113 8.68876 14.6928 8.64556C14.6558 8.55922 14.5887 8.41798 14.4771 8.22939C14.2541 7.85265 13.8514 7.2834 13.1514 6.58344C12.4515 5.88349 11.8822 5.4808 11.5055 5.25783C11.3169 5.14621 11.1757 5.0791 11.0893 5.0421C11.0461 5.02359 11.0165 5.01255 11.0015 5.00722L10.9907 5.00354C10.5987 4.88566 10.3729 4.4742 10.4857 4.07931Z" fill="#1E253F"/>
</svg>
