<svg width="74" height="67" viewBox="0 0 74 67" fill="none" xmlns="http://www.w3.org/2000/svg">
<path d="M5.18864 66.919C3.58414 66.919 2.31823 66.4011 1.39091 65.3653C0.534965 64.4092 0.0740721 63.1544 0.00823024 61.601L0 61.2064V5.71265C0 3.95491 0.463637 2.56337 1.39091 1.53802C2.24689 0.591546 3.39139 0.0819064 4.82438 0.00910071L5.18864 0H44.6039C46.1876 0 47.4431 0.512673 48.3704 1.53802C49.2264 2.48449 49.6873 3.74299 49.7531 5.31352L49.7613 5.71265L49.7606 15.4426L68.3592 15.4429C69.8211 15.4429 71.0033 15.8842 71.906 16.7667L72.1258 16.9966C72.9818 17.9527 73.4428 19.2075 73.5086 20.7609L73.5168 21.1555V61.2064C73.5168 62.9432 73.0532 64.3295 72.1258 65.3653C71.2698 66.3214 70.1341 66.8362 68.7188 66.9098L68.3592 66.919H5.18864ZM49.7613 61.2064C49.7613 61.4323 49.7535 61.6523 49.7378 61.8664L66.7025 61.8655C67.3068 61.8655 67.7549 61.7191 68.0468 61.4261C68.297 61.175 68.44 60.8009 68.4757 60.3038L68.4847 60.045V22.3168C68.4847 21.689 68.3387 21.2287 68.0468 20.9357C67.7966 20.6846 67.4316 20.5411 66.9519 20.5053L66.7025 20.4963L49.7606 20.4951L49.7613 61.2064ZM42.9473 5.05349H6.84528C6.22015 5.05349 5.76172 5.19997 5.46999 5.49293C5.21993 5.74403 5.07704 6.11812 5.04131 6.61519L5.03238 6.87397V60.045C5.03238 60.6728 5.17825 61.1332 5.46999 61.4261C5.72005 61.6772 6.09258 61.8207 6.58757 61.8566L6.84528 61.8655L14.002 61.8648L14.0032 52.6061C14.0032 51.3696 14.2572 50.4314 14.7652 49.7916L14.9253 49.6086C15.4841 49.0284 16.3142 48.7119 17.4155 48.6591L17.754 48.6512H32.0073C33.2993 48.6512 34.2474 48.9703 34.8517 49.6086C35.401 50.1888 35.7007 51.0673 35.7506 52.2441L35.7581 52.6061L35.7571 61.8648L42.9473 61.8655C43.5516 61.8655 43.9996 61.7191 44.2913 61.4261C44.5414 61.175 44.6843 60.8009 44.72 60.3038L44.729 60.045V6.87397C44.729 6.24623 44.5831 5.78589 44.2913 5.49293C43.9996 5.19997 43.5516 5.05349 42.9473 5.05349ZM30.6633 52.7631H19.0981C18.4919 52.7631 18.1613 53.0398 18.1062 53.5932L18.0979 53.7675L18.0969 61.8648H31.6622L31.6635 53.7675C31.6635 53.1587 31.388 52.8267 30.8369 52.7714L30.6633 52.7631ZM61.6389 49.6556C62.2883 49.6556 62.6401 49.9545 62.6942 50.5524L62.7016 50.7228V55.6194C62.7016 56.2715 62.4039 56.6248 61.8087 56.6791L61.6389 56.6865H56.6067C55.9764 56.6865 55.6349 56.3876 55.5824 55.7898L55.5752 55.6194V50.7228C55.5752 50.0707 55.8641 49.7174 56.442 49.663L56.6067 49.6556H61.6389ZM61.6389 37.6655C62.2883 37.6655 62.6401 37.9644 62.6942 38.5622L62.7016 38.7326V43.6292C62.7016 44.2813 62.4039 44.6346 61.8087 44.689L61.6389 44.6964H56.6067C55.9764 44.6964 55.6349 44.3975 55.5824 43.7996L55.5752 43.6292V38.7326C55.5752 38.0805 55.8641 37.7272 56.442 37.6729L56.6067 37.6655H61.6389ZM20.5984 35.1231C21.3871 35.1231 21.8118 35.4886 21.8724 36.2196L21.88 36.41V42.3423C21.88 43.1342 21.516 43.5606 20.788 43.6215L20.5984 43.6292H14.5033C13.7531 43.6292 13.3492 43.2637 13.2915 42.5327L13.2843 42.3423V36.41C13.2843 35.618 13.6305 35.1916 14.323 35.1307L14.5033 35.1231H20.5984ZM35.2268 35.1231C36.0154 35.1231 36.4401 35.4886 36.5007 36.2196L36.5083 36.41V42.3423C36.5083 43.1342 36.1443 43.5606 35.4164 43.6215L35.2268 43.6292H29.1629C28.3935 43.6292 27.9792 43.2637 27.92 42.5327L27.9126 42.3423V36.41C27.9126 35.618 28.2677 35.1916 28.9779 35.1307L29.1629 35.1231H35.2268ZM61.6389 25.6753C62.2883 25.6753 62.6401 25.9742 62.6942 26.572L62.7016 26.7425V31.639C62.7016 32.2912 62.4039 32.6444 61.8087 32.6988L61.6389 32.7062H56.6067C55.9764 32.7062 55.6349 32.4073 55.5824 31.8095L55.5752 31.639V26.7425C55.5752 26.0903 55.8641 25.737 56.442 25.6827L56.6067 25.6753H61.6389ZM20.5984 22.6935C21.3871 22.6935 21.8118 23.059 21.8724 23.79L21.88 23.9803V29.9126C21.88 30.7046 21.516 31.131 20.788 31.192L20.5984 31.1996H14.5033C13.7531 31.1996 13.3492 30.8341 13.2915 30.103L13.2843 29.9126V23.9803C13.2843 23.1884 13.6305 22.762 14.323 22.7011L14.5033 22.6935H20.5984ZM35.2268 22.6935C36.0154 22.6935 36.4401 23.059 36.5007 23.79L36.5083 23.9803V29.9126C36.5083 30.7046 36.1443 31.131 35.4164 31.192L35.2268 31.1996H29.1629C28.3935 31.1996 27.9792 30.8341 27.92 30.103L27.9126 29.9126V23.9803C27.9126 23.1884 28.2677 22.762 28.9779 22.7011L29.1629 22.6935H35.2268ZM20.5984 10.2638C21.3871 10.2638 21.8118 10.6294 21.8724 11.3604L21.88 11.5508V17.4831C21.88 18.275 21.516 18.7015 20.788 18.7624L20.5984 18.77H14.5033C13.7531 18.77 13.3492 18.4045 13.2915 17.6734L13.2843 17.4831V11.5508C13.2843 10.7588 13.6305 10.3324 14.323 10.2715L14.5033 10.2638H20.5984ZM35.2268 10.2638C36.0154 10.2638 36.4401 10.6294 36.5007 11.3604L36.5083 11.5508V17.4831C36.5083 18.275 36.1443 18.7015 35.4164 18.7624L35.2268 18.77H29.1629C28.3935 18.77 27.9792 18.4045 27.92 17.6734L27.9126 17.4831V11.5508C27.9126 10.7588 28.2677 10.3324 28.9779 10.2715L29.1629 10.2638H35.2268Z" fill="#D1B06B"/>
</svg>
