<svg width="155" height="156" viewBox="0 0 155 156" fill="none" xmlns="http://www.w3.org/2000/svg">
<path opacity="0.5" d="M12.625 77.7344C12.625 104.885 12.625 132.86 22.0746 141.294C31.5241 149.729 46.733 149.729 77.1506 149.729C107.568 149.729 122.777 149.729 132.227 141.294C141.676 132.86 141.676 104.885 141.676 77.7344" stroke="#282F48" stroke-width="10.7543"/>
<path d="M96.2252 93.5808L140.659 80.1948C143.605 79.3078 145.078 78.8636 146.169 77.9838C147.121 77.2157 147.862 76.2149 148.321 75.0781C148.847 73.7765 148.847 72.2322 148.847 69.1443C148.847 56.9956 148.847 50.9215 146.484 46.2857C144.427 42.2521 141.159 38.9704 137.142 36.905C132.525 34.5312 126.476 34.5312 114.378 34.5312H39.9256C27.8279 34.5312 21.779 34.5312 17.1626 36.905C13.1458 38.9704 9.87768 42.2521 7.82089 46.2857C5.45703 50.9215 5.45703 56.9956 5.45703 69.1443C5.45703 72.2322 5.45703 73.7765 5.98299 75.0781C6.44234 76.2149 7.18338 77.2157 8.13578 77.9838C9.22633 78.8636 10.6992 79.3078 13.645 80.1948L58.079 93.5808" stroke="#282F48" stroke-width="10.7543"/>
<path d="M91.4894 81.3281H62.8113C60.8315 81.3281 59.2266 82.9401 59.2266 84.9279V100.49C59.2266 101.961 60.119 103.285 61.4799 103.832L66.4993 105.848C73.3369 108.594 80.9638 108.594 87.8014 105.848L92.8208 103.832C94.1815 103.285 95.0741 101.961 95.0741 100.49V84.9279C95.0741 82.9401 93.4689 81.3281 91.4894 81.3281Z" stroke="#282F48" stroke-width="10.7543" stroke-linecap="round"/>
<path opacity="0.5" d="M56.875 20.1334C59.8276 11.7446 67.7949 5.73438 77.1597 5.73438C86.5245 5.73438 94.492 11.7446 97.4444 20.1334" stroke="#282F48" stroke-width="10.7543" stroke-linecap="round"/>
</svg>
