<svg width="48" height="48" viewBox="0 0 48 48" fill="none" xmlns="http://www.w3.org/2000/svg">
<path fill-rule="evenodd" clip-rule="evenodd" d="M40.371 6.86697C38.1866 4.68146 35.5914 2.9496 32.7349 1.7711C29.8785 0.59259 26.8171 -0.00928917 23.7271 0.000108372C10.7591 0.000108372 0.202525 10.504 0.197251 23.4171C0.191514 27.5289 1.27538 31.5688 3.3385 35.1255L0 47.2559L12.4732 43.9997C15.9259 45.8702 19.7908 46.8491 23.7176 46.8477H23.7271C36.6939 46.8477 47.2495 36.3428 47.2558 23.4308C47.2637 20.3513 46.659 17.301 45.4771 14.4574C44.2951 11.6137 42.5594 9.03357 40.371 6.86697V6.86697ZM23.7271 42.8953H23.7186C20.2181 42.8964 16.7812 41.9596 13.7654 40.1823L13.0513 39.7604L5.6496 41.6928L7.62528 34.5106L7.1601 33.7722C5.20277 30.6733 4.16574 27.0823 4.16969 23.4171C4.16969 12.6864 12.9468 3.95567 23.7345 3.95567C28.9094 3.94643 33.8761 5.99309 37.5421 9.64549C41.2082 13.2979 43.2733 18.2569 43.2834 23.4318C43.2792 34.1635 34.5062 42.8953 23.7271 42.8953ZM34.4535 28.3188C33.866 28.0256 30.9726 26.61 30.4368 26.4149C29.9009 26.2197 29.5054 26.1216 29.114 26.7081C28.7227 27.2946 27.5951 28.6068 27.2523 29.0023C26.9095 29.3979 26.5666 29.4411 25.9791 29.1479C25.3916 28.8546 23.4961 28.2376 21.2504 26.244C19.5025 24.6923 18.3232 22.7768 17.9804 22.1914C17.6376 21.6059 17.9435 21.2884 18.2378 20.9973C18.5026 20.7347 18.8253 20.3138 19.1196 19.972C19.4139 19.6303 19.512 19.3855 19.7072 18.9953C19.9023 18.605 19.8053 18.2632 19.6586 17.971C19.512 17.6789 18.3359 14.7981 17.8465 13.6262C17.3686 12.4849 16.8845 12.64 16.5237 12.6221C16.1809 12.6052 15.7853 12.601 15.3961 12.601C15.0986 12.6087 14.8058 12.6777 14.5361 12.8037C14.2664 12.9296 14.0256 13.1098 13.8287 13.333C13.2896 13.9195 11.7707 15.3372 11.7707 18.2147C11.7707 21.0922 13.8803 23.877 14.1715 24.2672C14.4626 24.6575 18.3169 30.5677 24.2144 33.1024C25.3095 33.5714 26.4284 33.9826 27.5666 34.3344C28.9748 34.7796 30.2564 34.7173 31.269 34.5665C32.3987 34.3988 34.7499 33.1509 35.2383 31.7839C35.7267 30.4168 35.7277 29.246 35.5811 29.0023C35.4345 28.7587 35.0421 28.611 34.4535 28.3188Z" fill="white"/>
</svg>
