<svg width="52" height="52" viewBox="0 0 52 52" fill="none" xmlns="http://www.w3.org/2000/svg">
<path d="M37.5399 30.9693C36.9099 30.6456 33.7716 29.1082 33.1878 28.9002C32.6041 28.6805 32.1764 28.5765 31.7545 29.2238C31.3268 29.8654 30.113 31.2929 29.7316 31.7264C29.3617 32.1541 28.986 32.2061 28.356 31.8883C24.6108 30.0156 22.1544 28.5476 19.6865 24.3111C19.0334 23.184 20.3396 23.265 21.5591 20.8317C21.7672 20.404 21.6631 20.0399 21.5013 19.7162C21.3395 19.3926 20.0679 16.26 19.5362 14.9827C19.0218 13.74 18.4901 13.9134 18.1028 13.8903C17.7329 13.8672 17.311 13.8672 16.8833 13.8672C16.4556 13.8672 15.7678 14.029 15.1841 14.659C14.6003 15.3006 12.9531 16.8437 12.9531 19.9763C12.9531 23.1089 15.2361 26.1432 15.5482 26.5709C15.8719 26.9986 20.039 33.4257 26.4371 36.1941C30.4829 37.9396 32.0666 38.0899 34.0894 37.7893C35.3205 37.6044 37.8578 36.2519 38.3838 34.755C38.9097 33.2638 38.9097 31.9865 38.7537 31.7206C38.5976 31.4374 38.1699 31.2756 37.5399 30.9693Z" fill="#1E253F"/>
<path d="M49.775 15.8595C48.4688 12.7558 46.5962 9.96996 44.2092 7.57717C41.8222 5.19016 39.0363 3.31176 35.9269 2.01133C32.748 0.676224 29.3727 0 25.8933 0H25.7777C22.2752 0.0173391 18.8826 0.710902 15.6922 2.07491C12.6116 3.39268 9.84892 5.2653 7.48503 7.65231C5.12113 10.0393 3.26585 12.8136 1.98276 15.9057C0.653433 19.1077 -0.0170112 22.5119 0.000327897 26.0144C0.017667 30.0255 0.977095 34.0077 2.77458 37.568V46.3531C2.77458 47.8211 3.96519 49.0118 5.43324 49.0118H14.2241C17.7844 50.8092 21.7666 51.7687 25.7777 51.786H25.8991C29.3611 51.786 32.7191 51.1156 35.8806 49.8036C38.9728 48.5147 41.7528 46.6652 44.134 44.3013C46.521 41.9374 48.3994 39.1747 49.7114 36.0942C51.0754 32.9038 51.769 29.5111 51.7863 26.0086C51.8037 22.4888 51.1217 19.073 49.775 15.8595ZM41.0419 41.1745C36.9903 45.1856 31.6152 47.3934 25.8933 47.3934H25.7951C22.3099 47.3761 18.8479 46.5092 15.7904 44.8793L15.3049 44.6192H7.16714V36.4814L6.90706 35.9959C5.27718 32.9384 4.41023 29.4764 4.39289 25.9913C4.36977 20.2289 6.57183 14.8191 10.6118 10.7444C14.6461 6.66976 20.0385 4.41568 25.8009 4.39256H25.8991C28.789 4.39256 31.5921 4.95319 34.2334 6.06289C36.8112 7.1437 39.123 8.69843 41.1113 10.6866C43.0937 12.6691 44.6542 14.9867 45.735 17.5645C46.8563 20.2347 47.4169 23.0667 47.4053 25.9913C47.3707 31.7478 45.1108 37.1403 41.0419 41.1745Z" fill="#1E253F"/>
</svg>
