<svg width="75" height="75" viewBox="0 0 75 75" fill="none" xmlns="http://www.w3.org/2000/svg">
<circle cx="37.5" cy="37.5" r="37.5" fill="#F0F0F0" fill-opacity="0.8"/>
<path fill-rule="evenodd" clip-rule="evenodd" d="M34.241 59.8965L34.8027 58.9478C35.7026 57.4273 36.1526 56.667 36.8695 56.243C37.5865 55.8189 38.5214 55.7889 40.3915 55.7291C42.1451 55.6731 43.3238 55.52 44.3313 55.1027C46.453 54.2238 48.1386 52.5382 49.0174 50.4167C49.6766 48.8254 49.6766 46.8082 49.6766 42.7737V41.0419C49.6766 35.3733 49.6766 32.5389 48.4006 30.4568C47.6866 29.2917 46.707 28.3122 45.542 27.5982C43.46 26.3223 40.6255 26.3223 34.9568 26.3223H29.7617C24.093 26.3223 21.2586 26.3223 19.1765 27.5982C18.0114 28.3122 17.0319 29.2917 16.3179 30.4568C15.042 32.5389 15.042 35.3733 15.042 41.0419V42.7737C15.042 46.8082 15.042 48.8254 15.7011 50.4167C16.5799 52.5382 18.2655 54.2238 20.3871 55.1027C21.3948 55.52 22.5733 55.6731 24.3269 55.7291C26.197 55.7889 27.1321 55.8189 27.8489 56.243C28.5658 56.667 29.0158 57.4273 29.9158 58.9478L30.4774 59.8965C31.3141 61.3102 33.4043 61.3102 34.241 59.8965ZM39.9356 43.6396C41.131 43.6396 42.1002 42.6704 42.1002 41.4748C42.1002 40.2794 41.131 39.3102 39.9356 39.3102C38.74 39.3102 37.7708 40.2794 37.7708 41.4748C37.7708 42.6704 38.74 43.6396 39.9356 43.6396ZM34.524 41.4748C34.524 42.6704 33.5548 43.6396 32.3593 43.6396C31.1637 43.6396 30.1946 42.6704 30.1946 41.4748C30.1946 40.2794 31.1637 39.3102 32.3593 39.3102C33.5548 39.3102 34.524 40.2794 34.524 41.4748ZM24.7829 43.6396C25.9785 43.6396 26.9476 42.6704 26.9476 41.4748C26.9476 40.2794 25.9785 39.3102 24.7829 39.3102C23.5875 39.3102 22.6183 40.2794 22.6183 41.4748C22.6183 42.6704 23.5875 43.6396 24.7829 43.6396Z" fill="#292D32"/>
<path opacity="0.5" d="M44.6177 16.042C47.2042 16.042 49.261 16.042 50.9107 16.1988C52.602 16.3596 54.0322 16.6967 55.3062 17.4774C56.6169 18.2806 57.7188 19.3826 58.522 20.6933C59.3028 21.9673 59.6398 23.3974 59.8007 25.0889C59.9575 26.7384 59.9575 28.7954 59.9575 31.3819V33.1485C59.9575 34.9893 59.9575 36.4536 59.8765 37.6408C59.7936 38.8556 59.6206 39.8985 59.216 40.8752C58.2274 43.2621 56.3311 45.1584 53.9442 46.147C53.8846 46.1717 53.8246 46.1956 53.7643 46.2186C53.4762 46.3287 53.2292 46.4232 53.0126 46.4935H49.6436C49.6767 45.4747 49.6767 44.2613 49.6767 42.7735V41.0418C49.6767 35.3731 49.6767 32.5388 48.4007 30.4566C47.6867 29.2916 46.7071 28.312 45.5421 27.5981C43.46 26.3221 40.6256 26.3221 34.9569 26.3221H29.7618C27.7499 26.3221 26.095 26.3221 24.7041 26.3791V23.0096C24.7709 22.7781 24.8624 22.5129 24.9698 22.2015C25.1525 21.6719 25.3833 21.171 25.6761 20.6933C26.4792 19.3826 27.5812 18.2806 28.8919 17.4774C30.1659 16.6967 31.596 16.3596 33.2875 16.1988C34.9371 16.042 36.9939 16.042 39.5805 16.042H44.6177Z" fill="#292D32"/>
</svg>
