<svg width="103" height="103" viewBox="0 0 103 103" fill="none" xmlns="http://www.w3.org/2000/svg">
<circle cx="51.5" cy="51.5" r="51.5" fill="#1F932D"/>
<path d="M79.6529 34.3328C79.6529 38.8836 75.9638 42.5728 71.4129 42.5728C66.8619 42.5728 63.1729 38.8836 63.1729 34.3328C63.1729 29.782 66.8619 26.0928 71.4129 26.0928C75.9638 26.0928 79.6529 29.782 79.6529 34.3328Z" fill="#8FC996"/>
<path opacity="0.5" d="M62.1735 26.1229C60.4569 26.0928 58.5177 26.0928 56.3064 26.0928H48.0664C39.0754 26.0928 34.5798 26.0928 31.2774 28.1165C29.4295 29.2489 27.8759 30.8026 26.7435 32.6505C24.7197 35.9529 24.7197 40.4484 24.7197 49.4394V52.1861C24.7197 58.585 24.7197 61.7846 25.7651 64.3082C27.159 67.6735 29.8325 70.3468 33.1975 71.7407C35.0112 72.4919 37.1737 72.7032 40.6218 72.7628C42.9574 72.8029 44.1252 72.8229 45.0527 73.3624C45.9803 73.9021 46.5577 74.8774 47.7126 76.8287L49.2016 79.3443C50.5288 81.5864 53.844 81.5864 55.1712 79.3443L56.6602 76.8287C57.8149 74.8774 58.3925 73.9018 59.32 73.3624C60.2476 72.8229 61.4152 72.8029 63.751 72.7628C67.1991 72.7032 69.3616 72.4919 71.1752 71.7407C74.5404 70.3468 77.2137 67.6735 78.6077 64.3082C79.6531 61.7846 79.6531 58.585 79.6531 52.1861V49.4394C79.6531 47.2282 79.6531 45.2889 79.6228 43.5724C77.4398 45.5136 74.5643 46.6928 71.4131 46.6928C64.5868 46.6928 59.0531 41.159 59.0531 34.3328C59.0531 31.1817 60.2322 28.306 62.1735 26.1229Z" fill="white"/>
<path d="M47.8945 55.1907C47.8945 56.8559 49.182 58.1949 50.7614 58.1949H53.9887C55.362 58.1949 56.4779 57.0276 56.4779 55.5684C56.4779 54.0062 55.7912 53.4397 54.7784 53.0792L49.6112 51.2767C48.5984 50.9162 47.9117 50.3669 47.9117 48.7876C47.9117 47.3456 49.0275 46.1611 50.4009 46.1611H53.6282C55.2075 46.1611 56.495 47.5001 56.495 49.1652" stroke="white" stroke-width="2.575" stroke-linecap="round" stroke-linejoin="round"/>
<path d="M52.186 44.4609V59.9109" stroke="white" stroke-width="2.575" stroke-linecap="round" stroke-linejoin="round"/>
<path d="M69.3529 52.1862C69.3529 61.6622 61.6622 69.3529 52.1862 69.3529C42.7102 69.3529 35.0195 61.6622 35.0195 52.1862C35.0195 42.7102 42.7102 35.0195 52.1862 35.0195" stroke="#1F932D" stroke-width="2.575" stroke-linecap="round" stroke-linejoin="round"/>
<path d="M74.1598 37.0793V31.5859H68.6665" stroke="white" stroke-width="1.71667" stroke-linecap="round" stroke-linejoin="round"/>
<path d="M67.293 38.4526L74.1596 31.5859" stroke="white" stroke-width="1.71667" stroke-linecap="round" stroke-linejoin="round"/>
</svg>
