<svg width="82" height="82" viewBox="0 0 82 82" fill="none" xmlns="http://www.w3.org/2000/svg">
<path opacity="0.4" d="M48.8506 64.625L53.9815 69.756L64.2433 59.4941" stroke="#292D32" stroke-width="6" stroke-linecap="round" stroke-linejoin="round"/>
<path opacity="0.4" d="M41.1588 37.0138C40.8212 36.9801 40.4162 36.9801 40.0449 37.0138C32.0109 36.7438 25.631 30.1614 25.631 22.0599C25.5972 13.7897 32.3147 7.07227 40.5849 7.07227C48.8552 7.07227 55.5726 13.7897 55.5726 22.0599C55.5726 30.1614 49.159 36.7438 41.1588 37.0138Z" stroke="#292D32" stroke-width="6" stroke-linecap="round" stroke-linejoin="round"/>
<path d="M40.5796 73.9429C34.436 73.9429 28.326 72.3902 23.6677 69.2846C15.4988 63.8161 15.4988 54.9046 23.6677 49.4698C32.9506 43.2587 48.1747 43.2587 57.4576 49.4698" stroke="#292D32" stroke-width="6" stroke-linecap="round" stroke-linejoin="round"/>
</svg>
