<svg width="75" height="75" viewBox="0 0 75 75" fill="none" xmlns="http://www.w3.org/2000/svg">
<circle cx="37.5" cy="37.5" r="37.5" fill="#F0F0F0" fill-opacity="0.8"/>
<path d="M32.522 36.6051C32.3417 36.5871 32.1252 36.5871 31.9268 36.6051C27.6343 36.4608 24.2256 32.9439 24.2256 28.6153C24.2256 24.1965 27.7967 20.6074 32.2335 20.6074C36.6521 20.6074 40.2412 24.1965 40.2412 28.6153C40.2232 32.9439 36.8144 36.4608 32.522 36.6051Z" stroke="#292D32" stroke-width="2.70536" stroke-linecap="round" stroke-linejoin="round"/>
<path opacity="0.4" d="M45.5948 24.2148C49.0937 24.2148 51.9073 27.0465 51.9073 30.5274C51.9073 33.9361 49.202 36.7136 45.8293 36.8399C45.685 36.8218 45.5227 36.8218 45.3604 36.8399" stroke="#292D32" stroke-width="2.70536" stroke-linecap="round" stroke-linejoin="round"/>
<path d="M23.504 43.2606C19.1393 46.1824 19.1393 50.9438 23.504 53.8475C28.4638 57.1661 36.5979 57.1661 41.5577 53.8475C45.9224 50.9257 45.9224 46.1643 41.5577 43.2606C36.6159 39.96 28.4818 39.96 23.504 43.2606Z" stroke="#292D32" stroke-width="2.70536" stroke-linecap="round" stroke-linejoin="round"/>
<path opacity="0.4" d="M49.0771 53.0714C50.3757 52.8009 51.6022 52.2779 52.6122 51.5023C55.4257 49.3922 55.4257 45.9113 52.6122 43.8011C51.6202 43.0436 50.4118 42.5386 49.1313 42.25" stroke="#292D32" stroke-width="2.70536" stroke-linecap="round" stroke-linejoin="round"/>
</svg>
