<svg width="109" height="23" viewBox="0 0 109 23" fill="none" xmlns="http://www.w3.org/2000/svg">
<mask id="mask0_2084_2696" style="mask-type:luminance" maskUnits="userSpaceOnUse" x="36" y="0" width="73" height="23">
<path d="M36.0645 0.0341797H108.293V22.5543H36.0645V0.0341797Z" fill="white"/>
</mask>
<g mask="url(#mask0_2084_2696)">
<mask id="mask1_2084_2696" style="mask-type:luminance" maskUnits="userSpaceOnUse" x="36" y="0" width="73" height="23">
<path d="M51.3438 0.0341797H106.453C107.11 0.0341797 107.717 0.386859 108.044 0.959515C108.369 1.53098 108.363 2.23275 108.028 2.79943L97.9668 19.789C96.9518 21.5034 95.1083 22.5543 93.1166 22.5543H38.0077C37.3502 22.5543 36.7416 22.2016 36.4164 21.6301C36.0901 21.0575 36.096 20.3557 36.432 19.789L46.4923 2.79943C47.5073 1.08505 49.352 0.0341797 51.3438 0.0341797Z" fill="white"/>
</mask>
<g mask="url(#mask1_2084_2696)">
<path d="M34.7949 0.0341797H109.667V22.5543H34.7949V0.0341797Z" fill="black"/>
</g>
</g>
<path d="M11.5796 8.2003H7.58173V18.764H4.20557V8.2003H0.241211V5.46973H11.5796V8.2003Z" fill="black"/>
<path d="M15.2043 8.53985V10.2662C15.9241 9.04197 17.0311 8.4179 18.5231 8.3916V11.3469C17.5858 11.2609 16.8207 11.4175 16.2277 11.8156C15.6347 12.2113 15.2928 12.7756 15.2043 13.5084V18.764H11.9238V8.53985H15.2043Z" fill="black"/>
<path d="M28.8971 8.54004V18.7642H25.6166V17.0761C24.9208 18.2907 23.815 18.8981 22.2979 18.8981C21.1848 18.8981 20.2953 18.5442 19.6294 17.8364C18.9659 17.1287 18.6348 16.1806 18.6348 14.9911V8.54004H21.9153V14.0586C21.9153 14.6683 22.0695 15.1465 22.3791 15.4932C22.6912 15.8411 23.106 16.0145 23.6225 16.0145C24.2442 16.0025 24.7319 15.7706 25.0858 15.3211C25.4397 14.8715 25.6166 14.2929 25.6166 13.5852V8.54004H28.8971Z" fill="black"/>
<path d="M34.9102 8.43066C36.6795 8.43066 38.009 8.97463 38.8984 10.0614C39.7903 11.1493 40.18 12.6413 40.0653 14.5374H32.8778C33.0428 15.1435 33.3345 15.611 33.7529 15.9386C34.1701 16.2673 34.6818 16.4311 35.2879 16.4311C36.2217 16.4311 37.0382 16.0844 37.7364 15.3886L39.4579 17.0767C38.3581 18.2794 36.872 18.8795 35.001 18.8795C33.3464 18.8795 32.0278 18.4061 31.0462 17.4593C30.0671 16.51 29.5781 15.2499 29.5781 13.6814C29.5781 12.1009 30.0671 10.8301 31.0462 9.87007C32.0278 8.91126 33.3153 8.43066 34.9102 8.43066ZM32.8204 12.7728H36.9186C36.9186 12.1511 36.7381 11.6514 36.3783 11.2712C36.0172 10.8922 35.5414 10.7022 34.9484 10.7022C34.3901 10.7022 33.9215 10.8887 33.5425 11.2617C33.1623 11.6347 32.922 12.1392 32.8204 12.7728Z" fill="black"/>
<path d="M43.6265 4.64355H48.7816C50.2927 4.64355 51.4643 5.00221 52.2964 5.71953C53.1309 6.43445 53.5493 7.45064 53.5493 8.7705C53.5493 10.1573 53.1309 11.2333 52.2964 11.9984C51.4643 12.7636 50.2927 13.1461 48.7816 13.1461H46.6344V16.4792H43.6265V4.64355ZM46.6344 7.01069V10.779H48.6285C49.2944 10.779 49.8073 10.6164 50.1684 10.2912C50.5282 9.96364 50.7087 9.49021 50.7087 8.87093C50.7087 8.26241 50.5282 7.79974 50.1684 7.48412C49.8073 7.1685 49.2944 7.01069 48.6285 7.01069H46.6344Z" fill="#D6D6D6"/>
<path d="M58.2328 7.23047C59.4821 7.23047 60.4529 7.52098 61.1451 8.10081C61.8397 8.68184 62.1935 9.49001 62.2067 10.5253V16.479H59.347V15.4318C58.7504 16.2196 57.8215 16.6129 56.559 16.6129C55.599 16.6129 54.8375 16.3487 54.2732 15.8191C53.7089 15.2907 53.4268 14.6033 53.4268 13.758C53.4268 12.8877 53.728 12.2134 54.3306 11.7352C54.9355 11.257 55.8011 11.0119 56.9273 10.9988H59.3326V10.8649C59.3326 10.4153 59.182 10.0639 58.8831 9.80802C58.5831 9.55337 58.1395 9.42545 57.5537 9.42545C56.7312 9.42545 55.8238 9.68129 54.8327 10.1906L54.0054 8.2634C55.4807 7.57478 56.8902 7.23047 58.2328 7.23047ZM57.4533 14.6379C57.9148 14.6379 58.32 14.5232 58.6679 14.2936C59.0182 14.0617 59.2394 13.758 59.3326 13.385V12.5721H57.4868C56.6069 12.5721 56.1669 12.8996 56.1669 13.5524C56.1669 13.8907 56.2793 14.1573 56.5064 14.351C56.7324 14.5423 57.048 14.6379 57.4533 14.6379Z" fill="white"/>
<path d="M66.245 7.36437V8.9042C66.8858 7.81149 67.8721 7.25318 69.2051 7.23047V9.8654C68.3694 9.78889 67.6856 9.92757 67.1536 10.2814C66.624 10.6353 66.3215 11.141 66.245 11.7974V16.479H63.3184V7.36437H66.245Z" fill="white"/>
<path d="M74.8816 13.9592L75.4602 15.9868C74.7489 16.4052 73.9359 16.6132 73.0214 16.6132C72.1188 16.6132 71.3883 16.3634 70.8312 15.8624C70.2729 15.3627 69.9943 14.6502 69.9943 13.7249V9.69833H68.7271V7.78549H69.9943V5.25098H72.9066V7.77114H75.2881V9.69833H72.9066V13.2658C72.9066 13.6173 72.9759 13.8731 73.117 14.0357C73.2569 14.1983 73.4673 14.2748 73.7483 14.2652C74.0184 14.2652 74.3962 14.1636 74.8816 13.9592Z" fill="white"/>
<path d="M81.9314 7.23047C82.9357 7.23047 83.7415 7.54967 84.3512 8.18689C84.9597 8.82171 85.2646 9.66934 85.2646 10.731V16.479H82.357V11.5391C82.357 11.0107 82.2112 10.5911 81.9219 10.2814C81.6349 9.973 81.244 9.81758 80.7503 9.81758C80.2302 9.81758 79.8034 9.98735 79.4687 10.3245C79.1363 10.6628 78.9438 11.1076 78.89 11.6587V16.479H75.9634V7.36437H78.89V8.8516C79.5308 7.79356 80.5446 7.25318 81.9314 7.23047Z" fill="white"/>
<path d="M90.3658 7.26367C91.9463 7.26367 93.1346 7.74905 93.9285 8.71743C94.7223 9.687 95.0678 11.0164 94.9662 12.7057H88.5582C88.704 13.2485 88.9623 13.6657 89.3329 13.9586C89.7059 14.2527 90.1626 14.3986 90.7053 14.3986C91.5398 14.3986 92.2667 14.0901 92.886 13.4708L94.4258 14.9724C93.4431 16.0436 92.1184 16.5792 90.4519 16.5792C88.9754 16.5792 87.8002 16.1572 86.9275 15.3119C86.0536 14.4679 85.6172 13.3453 85.6172 11.9453C85.6172 10.537 86.0536 9.40486 86.9275 8.55006C87.8002 7.69287 88.9467 7.26367 90.3658 7.26367ZM88.5104 11.1372H92.1591C92.1591 10.5824 91.9977 10.1365 91.6761 9.79818C91.3569 9.46105 90.9325 9.29128 90.4041 9.29128C89.9067 9.29128 89.4883 9.45865 89.1512 9.7934C88.8128 10.1258 88.5988 10.5729 88.5104 11.1372Z" fill="white"/>
<path d="M98.517 7.36437V8.9042C99.1578 7.81149 100.144 7.25318 101.477 7.23047V9.8654C100.641 9.78889 99.9576 9.92757 99.4256 10.2814C98.896 10.6353 98.5935 11.141 98.517 11.7974V16.479H95.5903V7.36437H98.517Z" fill="white"/>
</svg>
