<svg width="136" height="18" viewBox="0 0 136 18" fill="none" xmlns="http://www.w3.org/2000/svg">
<g clip-path="url(#clip0_2764_223)">
<rect x="118.865" y="8.48337" width="11.3635" height="11.9171" transform="rotate(-45.3872 118.865 8.48337)" fill="white" fill-opacity="0.6"/>
<path d="M126.259 0.46821C126.883 -0.15607 127.895 -0.15607 128.519 0.46821L135.531 7.4806C136.155 8.10488 136.155 9.11557 135.531 9.73878L128.517 16.7522C127.893 17.3765 126.882 17.3765 126.259 16.7522L119.245 9.73878C118.621 9.11449 118.621 8.10381 119.245 7.4806L126.259 0.46821ZM127.389 1.06451C127.252 1.06451 127.117 1.11725 127.012 1.22058L119.999 8.23404C119.899 8.33396 119.843 8.46947 119.843 8.61076C119.843 8.75206 119.899 8.88757 119.999 8.98749L127.012 16.001C127.062 16.0505 127.12 16.0898 127.185 16.1166C127.25 16.1434 127.319 16.1571 127.389 16.157V1.06451Z" fill="#A66E55"/>
</g>
<rect width="119.8" height="3" transform="matrix(-1 0 0 1 119.8 7)" fill="#A66E55"/>
<defs>
<clipPath id="clip0_2764_223">
<rect width="17.2215" height="17.2215" fill="white" transform="matrix(-1 0 0 1 136 0)"/>
</clipPath>
</defs>
</svg>
