<svg width="138" height="21" viewBox="0 0 138 21" fill="none" xmlns="http://www.w3.org/2000/svg">
<g clip-path="url(#clip0_2764_229)">
<rect width="12.5414" height="13.1252" transform="matrix(-0.645712 -0.763581 -0.655852 0.75489 17.3867 10.0428)" fill="white" fill-opacity="0.6"/>
<path d="M9.88431 0.554279C9.25085 -0.18476 8.2242 -0.18476 7.59074 0.554279L0.476317 8.85572C-0.157145 9.59476 -0.157145 10.7912 0.476317 11.529L7.59293 19.8317C8.22639 20.5708 9.25194 20.5708 9.88431 19.8317L17.0009 11.529C17.6344 10.79 17.6344 9.59348 17.0009 8.85572L9.88431 0.554279ZM8.73753 1.26019C8.87623 1.26019 9.01385 1.32262 9.11979 1.44495L16.2364 9.74766C16.3378 9.86594 16.3947 10.0264 16.3947 10.1936C16.3947 10.3609 16.3378 10.5213 16.2364 10.6396L9.11979 18.9423C9.06966 19.001 9.01008 19.0475 8.94447 19.0792C8.87887 19.111 8.80854 19.1272 8.73753 19.1271V1.26019Z" fill="#A66E55"/>
</g>
<rect x="16.4381" y="8.28674" width="121.562" height="3.55147" fill="#A66E55"/>
<defs>
<clipPath id="clip0_2764_229">
<rect width="17.4748" height="20.3873" fill="white"/>
</clipPath>
</defs>
</svg>
